<svg width="81" height="79" viewBox="0 0 81 79" fill="none" xmlns="http://www.w3.org/2000/svg">
<rect x="0.254395" y="0.000976562" width="80.2546" height="78.8709" rx="39.4355" fill="white"/>
<path d="M25.587 51.0702C26.3081 51.6545 27.3371 51.4139 28.4852 50.6999C32.8211 48.0032 38.6603 47.8097 42.2254 51.4652C52.41 61.9081 53.1308 43.8242 57.5795 39.04C62.8245 33.3995 50.0429 32.5818 43.8827 32.9616C37.7224 33.3414 39.7575 21.8552 32.4286 22.7307C25.0996 23.6061 23.4784 29.3418 24.6186 34.4576C25.7588 39.5735 34.8038 34.2482 30.1674 38.6165C25.5309 42.9847 22.7074 48.7367 25.587 51.0702Z" fill="#211820"/>
<path d="M16.6997 25.4585L11.2025 31.6083L19.277 33.2941L16.6997 25.4585ZM11.4178 50.7571L16.915 44.6073L8.8405 42.9215L11.4178 50.7571ZM14.6865 31.6059L12.0325 44.3177L13.431 44.6097L16.085 31.8979L14.6865 31.6059Z" fill="#211820"/>
<path d="M59.5239 26.5898L61.3696 34.6293L67.4091 29.0111L59.5239 26.5898ZM55.8694 54.1876L64.118 54.1583L59.9683 47.0295L55.8694 54.1876ZM63.2576 31.6039C64.2861 33.7651 64.9823 36.9457 64.3747 41.5344L65.791 41.7219C66.4298 36.8978 65.7104 33.4333 64.5476 30.99L63.2576 31.6039ZM64.3747 41.5344C63.7851 45.9864 62.3663 48.7588 60.883 50.4886L61.9675 51.4186C63.6605 49.4444 65.1716 46.3998 65.791 41.7219L64.3747 41.5344Z" fill="#211820"/>
</svg>
