<svg width="81" height="79" viewBox="0 0 81 79" fill="none" xmlns="http://www.w3.org/2000/svg">
<rect width="80.2546" height="78.8709" rx="39.4355" fill="#B2BCC8"/>
<path fill-rule="evenodd" clip-rule="evenodd" d="M61.9909 19.6137C63.7011 20.4213 62.9987 23.6147 61.2299 26.342C60.4056 27.6129 60.7989 27.4802 61.574 27.2188C62.4622 26.9193 63.8515 26.4507 64.4844 27.731C65.6696 30.1287 65.5611 33.1683 62.0343 34.4905C60.1839 35.1842 59.1988 33.8786 58.246 32.6158C57.3829 31.4718 56.5462 30.363 55.1167 30.8073C54.381 31.036 53.4402 31.2772 52.4667 31.4609C53.1887 32.2525 54.0503 32.7806 54.7733 33.2239C56.1897 34.0921 57.0745 34.6344 55.337 36.1931C53.544 37.8016 50.8885 38.1188 48.5283 37.9388C48.7621 38.8931 49.0152 39.8634 49.2679 40.8327C51.0446 47.6458 52.8075 54.4064 47.7792 55.1558C44.6862 55.6168 44.1055 50.6697 43.5869 46.2519C43.091 42.0276 42.6519 38.2872 40.1276 40.2216C37.4701 42.2579 38.9212 47.9583 40.2488 53.1737C41.5012 58.0933 42.6436 62.5813 40.1244 63.1557C37.4919 63.756 36.2666 57.3082 35.1354 51.3556C34.0365 45.5725 33.0263 40.2568 30.9009 42.3253C28.8054 44.3647 29.8641 49.3655 30.8584 54.0618C31.9107 59.0318 32.8907 63.6608 29.9837 64.0779C27.8635 64.3822 24.1359 59.6476 21.7973 53.5632C20.7895 54.7747 19.7724 55.9452 18.273 56.0755C16.5652 56.2239 15.6573 53.4029 15.7971 50.4601C15.8622 49.0887 15.6148 49.3721 15.1273 49.9307C14.5687 50.5707 13.6948 51.5719 12.6148 50.8584C10.5922 49.5222 9.28936 47.0929 11.447 44.4475C12.5791 43.0595 13.9464 43.632 15.269 44.1857C16.467 44.6873 17.6283 45.1735 18.5447 44.173C18.8672 43.8209 19.262 43.4205 19.6964 43.0144C19.7682 35.7663 23.6432 29.349 35.5533 28.9725C36.0622 28.9642 36.6496 28.9859 37.2874 29.0469C37.9058 28.793 38.6018 28.7079 39.308 28.8383L40.3183 29.0249C42.0069 29.3366 43.8613 28.7136 44.3229 27.0596C44.7466 25.5413 44.6073 23.7778 42.8212 22.4972C39.1192 19.8429 50.1155 11.9911 51.1267 16.1335C51.6968 18.4688 51.7418 19.0624 51.5787 20.5055C51.7967 20.5466 52.0312 20.6139 52.2837 20.7099C53.8221 21.2944 55.4522 20.6998 57.0721 20.109C58.7612 19.4929 60.4393 18.8808 61.9909 19.6137Z" fill="white"/>
</svg>
