<svg width="61" height="30" viewBox="0 0 61 30" fill="none" xmlns="http://www.w3.org/2000/svg">
<path fill-rule="evenodd" clip-rule="evenodd" d="M50.5027 0C50.4477 0 50.3932 0.00216783 50.3393 0.00641935L49.7629 0.00406623C49.2589 0.00200852 48.8149 0.313153 48.6365 0.793568L45.54 9.1288C45.4756 9.30216 45.3099 9.41721 45.1246 9.41721C44.8799 9.41721 44.6815 9.21932 44.6815 8.97521V2.0404C44.6815 0.913517 43.7658 0 42.6362 0C42.6176 0 42.5991 0.000248434 42.5806 0.000740604C42.5621 0.000247911 42.5436 0 42.525 0H33.5111C33.2287 0 32.9597 0.0570954 32.715 0.160345C32.5927 0.21197 32.4764 0.275133 32.3676 0.348468C31.8236 0.715141 31.4659 1.3361 31.4659 2.04039V7.92404C31.4659 8.7487 30.7957 9.41721 29.9691 9.41721H29.827C29.6942 9.41721 29.5631 9.38716 29.4436 9.32931C29.1408 9.18277 28.9486 8.87657 28.9486 8.54088V2.0404C28.9486 1.03671 28.2222 0.202285 27.2652 0.0318389C27.1477 0.0109184 27.0268 0 26.9033 0H2.03597C0.911536 0 0 0.909358 0 2.03111C0 3.15154 0.909469 4.06034 2.03258 4.06221L5.65615 4.06823C5.94919 4.06872 6.08836 4.42852 5.87161 4.62525C5.81252 4.67888 5.73551 4.70861 5.65562 4.70861H3.61857C2.489 4.70861 1.57329 5.62212 1.57329 6.749C1.57329 7.87588 2.489 8.7894 3.61857 8.7894H5.56123C5.63955 8.7894 5.71506 8.81854 5.77299 8.87112C5.98567 9.06417 5.84878 9.41721 5.56123 9.41721H2.04528C0.915704 9.41721 0 10.3307 0 11.4576C0 12.5845 0.915703 13.498 2.04528 13.498H11.1704C12.3 13.498 13.2157 12.5845 13.2157 11.4576C13.2157 10.8926 12.9854 10.3812 12.6135 10.0117C12.5641 9.95449 12.5105 9.8995 12.4528 9.8471C12.3306 9.73619 12.2635 9.58576 12.239 9.41721C12.1766 8.98695 12.3918 8.4387 12.6771 8.12885C13.0115 7.76561 13.2157 7.28109 13.2157 6.749C13.2157 5.9735 12.782 5.29904 12.1434 4.95384C11.8689 4.80548 11.742 4.38392 11.9729 4.17435C12.0393 4.11415 12.1257 4.08079 12.2154 4.08079H13.0961C14.5524 4.08079 15.7329 5.25854 15.7329 6.71137V11.4576C15.7329 12.5845 16.6486 13.498 17.7782 13.498C18.9078 13.498 19.8235 12.5845 19.8235 11.4576C19.8235 10.4155 20.9165 9.73262 21.8563 10.1875L23.5485 11.0066C24.0784 11.2631 24.4608 11.7324 24.843 12.2016C25.0508 12.4567 25.2586 12.7118 25.49 12.9325C25.8126 13.2403 26.236 13.4437 26.7057 13.4886C26.7708 13.4948 26.8367 13.498 26.9033 13.498H33.1965H33.5111C34.6407 13.498 35.5564 12.5845 35.5564 11.4576V6.59205C35.5564 5.20512 36.6834 4.08079 38.0737 4.08079C39.4639 4.08079 40.591 5.20512 40.591 6.59205V11.4576C40.591 12.5845 41.5067 13.498 42.6362 13.498H43.3034C43.7601 13.498 44.2645 13.5464 44.7761 13.5955C46.4066 13.752 48.1115 13.9156 48.5848 12.5428L51.0802 5.30462C51.3326 4.57239 52.0232 4.08079 52.7994 4.08079C53.5585 4.08079 54.2376 4.55126 54.5029 5.26078L57.1706 12.3976C57.4205 13.066 58.0377 13.4996 58.7395 13.4996H59.4346C60.5017 13.4996 61.2721 12.3795 60.909 11.3561L59.474 7.31072C59.1133 6.15311 58.9416 5.51192 58.698 4.60243C58.6153 4.29348 58.5243 3.95356 58.4147 3.55192C57.8776 1.46151 55.9931 7.47819e-05 53.8348 4.60295e-05L50.5027 0ZM23.1784 6.29673L20.0291 4.77239C19.9034 4.71151 19.8235 4.58431 19.8235 4.44485C19.8235 4.24379 19.9869 4.08079 20.1884 4.08079L23.6888 4.08079C24.3345 4.08079 24.858 4.60304 24.858 5.24726C24.858 6.10833 23.9549 6.67261 23.1784 6.29673ZM4.40522 20.5679L11.1704 20.5679C12.3 20.5679 13.2157 19.6544 13.2157 18.5275C13.2157 17.4006 12.3 16.4871 11.1704 16.4871L0 16.4871V22.9898V27.9447C0 28.0076 0.00285849 28.0699 0.00844904 28.1314C0.00379055 29.1538 0.83331 29.9851 1.85818 29.9851L21.8688 29.9851C23.3459 29.9851 24.5434 28.7905 24.5434 27.3169V25.2765C24.5434 22.676 26.6565 20.5679 29.2633 20.5679C30.6535 20.5679 31.7805 21.6922 31.7805 23.0791V27.9447C31.7805 29.0716 32.6962 29.9851 33.8258 29.9851C34.9554 29.9851 35.8711 29.0716 35.8711 27.9447C35.8711 26.819 37.0518 26.0813 38.0669 26.5727L39.4883 27.2607C40.0556 27.5353 40.4474 28.0571 40.8387 28.5781L40.8388 28.5782C41.0455 28.8535 41.2521 29.1285 41.4843 29.3668C41.8559 29.7482 42.3757 29.9851 42.9509 29.9851C42.9949 29.9851 43.0385 29.9837 43.0818 29.981C43.1251 29.9837 43.1687 29.9851 43.2127 29.9851H49.5079C50.6364 29.9851 51.5512 29.0705 51.5512 27.9447C51.5512 27.3379 52.0442 26.846 52.6525 26.846H55.9564C56.6515 26.846 57.215 27.4082 57.215 28.1016C57.215 29.1418 58.0603 29.9851 59.103 29.9851C60.1457 29.9851 60.9909 29.1418 60.9909 28.1016V24.6487C60.9909 23.6085 60.1457 22.7652 59.103 22.7652C59.0772 22.7652 59.0515 22.7657 59.0259 22.7668C58.9993 22.7657 58.9725 22.7652 58.9456 22.7652C58.1228 22.7652 57.8007 21.6999 58.4863 21.246L60.1031 20.1757C61.0442 19.5526 61.2655 18.3109 60.5972 17.4024C59.9289 16.4939 58.6241 16.2626 57.6829 16.8857L53.9745 19.3409C52.9372 20.0276 51.5512 19.2857 51.5512 18.0438C51.5512 17.1841 50.8525 16.4871 49.9907 16.4871H49.5059C48.3763 16.4871 47.4606 17.4006 47.4606 18.5275V24.8056C47.4606 25.4124 46.9675 25.9043 46.3593 25.9043H46.3106C46.1367 25.9043 45.965 25.865 45.8086 25.7892L45.7645 25.7679C45.2946 25.5404 44.9962 25.0652 44.9962 24.5441V18.5275C44.9962 17.4006 44.0805 16.4871 42.9509 16.4871L17.7782 16.4871C16.6486 16.4871 15.7329 17.4006 15.7329 18.5275C15.7329 19.6544 16.6486 20.5679 17.7782 20.5679H18.0929C19.3962 20.5679 20.4528 21.6219 20.4528 22.9222V23.2361C20.4528 24.7097 19.2554 25.9043 17.7782 25.9043H4.40522C4.23144 25.9043 4.09056 25.7638 4.09056 25.5904C4.09056 25.417 4.23144 25.2765 4.40522 25.2765L6.13585 25.2765C7.26542 25.2765 8.18113 24.363 8.18113 23.2361C8.18113 22.1092 7.26542 21.1957 6.13585 21.1957L4.40522 21.1957C4.23144 21.1957 4.09056 21.0552 4.09056 20.8818C4.09056 20.7084 4.23144 20.5679 4.40522 20.5679ZM36.0139 21.0483L39.3262 22.6515C40.0564 23.005 40.9056 22.4744 40.9056 21.6647C40.9056 21.059 40.4134 20.5679 39.8062 20.5679H36.1246C35.9846 20.5679 35.8711 20.6811 35.8711 20.8208C35.8711 20.9176 35.9266 21.006 36.0139 21.0483Z" fill="#B2BCC8"/>
</svg>
