<svg width="82" height="41" viewBox="0 0 82 41" fill="none" xmlns="http://www.w3.org/2000/svg">
<path fill-rule="evenodd" clip-rule="evenodd" d="M67.3369 0.656252C67.2636 0.656252 67.1909 0.65914 67.119 0.664809L66.3505 0.661672C65.6785 0.658928 65.0866 1.07379 64.8486 1.71434L60.7201 12.828C60.6342 13.0591 60.4132 13.2125 60.1661 13.2125C59.8399 13.2125 59.5754 12.9487 59.5754 12.6232V3.37678C59.5754 1.87427 58.3544 0.656251 56.8483 0.656251C56.8235 0.656251 56.7988 0.656581 56.7742 0.657237C56.7495 0.656581 56.7248 0.65625 56.7 0.65625L44.6815 0.656251C44.305 0.656251 43.9463 0.732377 43.62 0.870043C43.4569 0.938876 43.3019 1.02309 43.1568 1.12087C42.4314 1.60977 41.9545 2.43771 41.9545 3.37678V11.2216C41.9545 12.3212 41.061 13.2125 39.9588 13.2125H39.7694C39.5923 13.2125 39.4174 13.1725 39.2581 13.0953C38.8544 12.8999 38.5981 12.4917 38.5981 12.0441V3.37678C38.5981 2.03853 37.6295 0.925963 36.3536 0.698702C36.197 0.670808 36.0357 0.656251 35.8711 0.656251L2.71463 0.65625C1.21538 0.65625 2.18768e-06 1.86873 2.12656e-06 3.36439C2.06567e-06 4.8583 1.21263 6.07004 2.7101 6.07253L7.54154 6.08056C7.93225 6.08121 8.11782 6.56094 7.82882 6.82325C7.75003 6.89476 7.64734 6.93439 7.54082 6.93439H4.82476C3.31866 6.93439 2.09772 8.15241 2.09772 9.65492C2.09772 11.1574 3.31866 12.3754 4.82476 12.3754H7.41497C7.5194 12.3754 7.62007 12.4143 7.69732 12.4844C7.9809 12.7418 7.79837 13.2125 7.41497 13.2125H2.72704C1.22094 13.2125 0 14.4306 0 15.9331C0 17.4356 1.22094 18.6536 2.72704 18.6536H14.8938C16.3999 18.6536 17.6209 17.4356 17.6209 15.9331C17.6209 15.1797 17.3139 14.4978 16.818 14.0052C16.7521 13.9289 16.6807 13.8556 16.6037 13.7857C16.4408 13.6378 16.3514 13.4373 16.3187 13.2125C16.2354 12.6389 16.5224 11.9079 16.9028 11.4947C17.3487 11.0104 17.6209 10.3644 17.6209 9.65492C17.6209 8.62091 17.0426 7.72164 16.1912 7.26137C15.8252 7.06356 15.6561 6.50147 15.9639 6.22205C16.0523 6.14179 16.1676 6.09731 16.2871 6.09731H17.4614C19.4031 6.09731 20.9772 7.66764 20.9772 9.60474V15.9331C20.9772 17.4356 22.1982 18.6536 23.7043 18.6536C25.2104 18.6536 26.4313 17.4356 26.4313 15.9331C26.4313 14.5436 27.8886 13.6331 29.1417 14.2396L31.398 15.3317C32.1045 15.6737 32.6143 16.2995 33.124 16.9251C33.4011 17.2652 33.6782 17.6053 33.9867 17.8996C34.4168 18.3099 34.9813 18.5812 35.6077 18.6411C35.6943 18.6493 35.7822 18.6536 35.8711 18.6536H44.262H44.6815C46.1876 18.6536 47.4086 17.4356 47.4086 15.9331V9.44565C47.4086 7.59641 48.9113 6.09731 50.7649 6.09731C52.6186 6.09731 54.1213 7.59641 54.1213 9.44565V15.9331C54.1213 17.4356 55.3422 18.6536 56.8483 18.6536H57.7379C58.3468 18.6536 59.0193 18.7181 59.7015 18.7836C61.8755 18.9923 64.1487 19.2104 64.7797 17.38L68.1069 7.72908C68.4435 6.75276 69.3643 6.09731 70.3992 6.09731C71.4113 6.09731 72.3168 6.72459 72.6705 7.67062L76.2275 17.1864C76.5606 18.0776 77.3836 18.6557 78.3193 18.6557H79.2461C80.6689 18.6557 81.6961 17.1623 81.212 15.7977L79.2986 10.4039C78.8176 8.86033 78.5887 8.0054 78.264 6.79265C78.1537 6.38075 78.0323 5.92759 77.8863 5.39215C77.1701 2.60493 74.6575 0.65635 71.7797 0.656311L67.3369 0.656252ZM30.9045 9.05189L26.7055 7.01944C26.5378 6.93827 26.4313 6.76866 26.4313 6.58272C26.4313 6.31463 26.6492 6.09731 26.9179 6.09731L31.585 6.09731C32.446 6.09731 33.144 6.79364 33.144 7.6526C33.144 8.8007 31.9399 9.55306 30.9045 9.05189ZM5.87415 28.0791H14.8944C16.4005 28.0791 17.6214 26.8611 17.6214 25.3586C17.6214 23.8561 16.4005 22.6381 14.8944 22.6381L0.000521105 22.6381V31.3084V37.9149C0.000521105 37.9988 0.00433242 38.0818 0.0117865 38.1638C0.00557517 39.527 1.1116 40.6354 2.4781 40.6354H29.1589C31.1284 40.6354 32.725 39.0426 32.725 37.0778V34.3572C32.725 30.8899 35.5426 28.0791 39.0182 28.0791C40.8719 28.0791 42.3746 29.5782 42.3746 31.4275V37.9149C42.3746 39.4174 43.5955 40.6354 45.1016 40.6354C46.6077 40.6354 47.8286 39.4174 47.8286 37.9149C47.8286 36.4139 49.4029 35.4304 50.7565 36.0856L52.6516 37.0029C53.408 37.369 53.9304 38.0647 54.4521 38.7594C54.7278 39.1265 55.0032 39.4933 55.3129 39.8111C55.8084 40.3195 56.5014 40.6354 57.2684 40.6354C57.327 40.6354 57.3852 40.6335 57.4429 40.6299C57.5006 40.6335 57.5588 40.6354 57.6175 40.6354H66.011C67.5157 40.6354 68.7354 39.4159 68.7354 37.9149C68.7354 37.1058 69.3928 36.45 70.2038 36.45H74.6091C75.5359 36.45 76.2872 37.1995 76.2872 38.1241C76.2872 39.5111 77.4142 40.6354 78.8045 40.6354C80.1947 40.6354 81.3218 39.5111 81.3218 38.1241V33.5202C81.3218 32.1332 80.1947 31.0089 78.8045 31.0089C78.7701 31.0089 78.7358 31.0096 78.7017 31.011C78.6819 31.0102 78.662 31.0096 78.642 31.0093C78.6263 31.009 78.6105 31.0089 78.5947 31.0089C77.4976 31.0089 77.0682 29.5885 77.9823 28.9833L80.1379 27.5561C81.3928 26.7253 81.6878 25.0699 80.7967 23.8585C79.9057 22.6472 78.166 22.3387 76.9111 23.1695L71.9665 26.4431C70.5835 27.3587 68.7354 26.3695 68.7354 24.7137C68.7354 23.5673 67.8039 22.6381 66.6548 22.6381H66.0084C64.5023 22.6381 63.2813 23.8561 63.2813 25.3586V33.7294C63.2813 34.5385 62.6239 35.1943 61.8129 35.1943H61.748C61.5161 35.1943 61.2873 35.1419 61.0786 35.0409L61.0198 35.0124C60.3933 34.7092 59.9954 34.0755 59.9954 33.3807V25.3586C59.9954 23.8561 58.7745 22.6381 57.2684 22.6381L23.7048 22.6381C22.1987 22.6381 20.9778 23.8561 20.9778 25.3586C20.9778 26.8611 22.1987 28.0791 23.7048 28.0791H24.1244C25.8622 28.0791 27.2709 29.4845 27.2709 31.2182V31.6367C27.2709 33.6015 25.6743 35.1943 23.7048 35.1943H5.87415C5.64244 35.1943 5.4546 35.0069 5.4546 34.7758C5.4546 34.5446 5.64244 34.3572 5.87415 34.3572L8.18165 34.3573C9.68775 34.3573 10.9087 33.1392 10.9087 31.6367C10.9087 30.1342 9.68775 28.9162 8.18165 28.9162H5.87415C5.64244 28.9162 5.4546 28.7288 5.4546 28.4977C5.4546 28.2665 5.64244 28.0791 5.87415 28.0791ZM48.0191 28.7196L52.4355 30.8573C53.4091 31.3286 54.5414 30.6211 54.5414 29.5416C54.5414 28.7339 53.885 28.0791 53.0754 28.0791L48.1666 28.0791C47.9799 28.0791 47.8286 28.2301 47.8286 28.4163C47.8286 28.5454 47.9026 28.6632 48.0191 28.7196Z" fill="#D1D0D6"/>
</svg>
